<svg width="30" height="30" viewBox="0 0 30 30" fill="none" xmlns="http://www.w3.org/2000/svg">
<circle cx="15" cy="15" r="15" fill="#FF807F"/>
<g clip-path="url(#clip0)">
<path d="M21.8774 19.9452C21.7567 20.8417 21.1534 21.6174 20.3088 21.9622C19.895 22.1344 19.4469 22.1862 18.9987 22.1344C18.5678 22.0827 18.1368 21.9448 17.6887 21.6865C17.068 21.3414 16.4475 20.8072 15.7235 20.0142C16.8613 18.618 17.5506 17.3424 17.8093 16.2049C17.93 15.6704 17.9472 15.1877 17.8955 14.7395C17.8267 14.3086 17.6715 13.912 17.43 13.5673C16.8957 12.7917 15.9994 12.3434 14.9996 12.3434C13.9998 12.3434 13.1035 12.8089 12.5691 13.5673C12.3277 13.9121 12.1727 14.3086 12.1037 14.7395C12.0348 15.1877 12.052 15.6876 12.1899 16.2049C12.4484 17.3423 13.1551 18.6352 14.2757 20.0312C13.5689 20.8244 12.9311 21.3587 12.3105 21.7036C11.8624 21.9622 11.4314 22.1001 11.0005 22.1516C10.5563 22.2012 10.1067 22.1421 9.69042 21.9794C8.84573 21.6347 8.24254 20.8587 8.12179 19.9624C8.07017 19.5316 8.10461 19.1007 8.27698 18.618C8.32861 18.4455 8.41492 18.2734 8.50098 18.0664C8.62173 17.7907 8.75967 17.4975 8.89742 17.2044L8.91479 17.1701C10.104 14.6016 11.3797 11.9815 12.707 9.43044L12.7587 9.32681C12.8967 9.0685 13.0344 8.79281 13.1725 8.53412C13.3103 8.25825 13.4654 7.99962 13.655 7.77537C14.017 7.36162 14.4997 7.13756 15.034 7.13756C15.5684 7.13756 16.051 7.36162 16.413 7.77544C16.6027 7.99962 16.7578 8.25825 16.8957 8.53419C17.0337 8.79281 17.1714 9.0685 17.3094 9.32681L17.3612 9.43044C18.6712 11.9987 19.9469 14.6187 21.1362 17.1873V17.2044C21.2742 17.4802 21.3947 17.7907 21.5327 18.0664C21.6189 18.2734 21.705 18.4454 21.7567 18.618C21.8946 19.0661 21.9463 19.4972 21.8774 19.9452H21.8774ZM14.9996 19.1349C14.0689 17.9629 13.4654 16.8596 13.2586 15.9291C13.1725 15.5325 13.1551 15.1877 13.207 14.8774C13.2414 14.6016 13.3449 14.3601 13.4826 14.1531C13.8102 13.6881 14.3617 13.3946 14.9996 13.3946C15.6374 13.3946 16.2062 13.6706 16.5165 14.1531C16.6543 14.3601 16.7578 14.6016 16.7922 14.8774C16.8439 15.1877 16.8267 15.5497 16.7405 15.9291C16.5337 16.8426 15.9304 17.9457 14.9996 19.1349ZM22.7737 18.2387C22.6876 18.0318 22.6014 17.8078 22.5152 17.6182C22.3773 17.3081 22.2394 17.0148 22.1187 16.7389L22.1014 16.7219C20.9122 14.1361 19.6365 11.516 18.2919 8.93075L18.2403 8.827C18.1024 8.56844 17.9644 8.29256 17.8267 8.01681C17.6542 7.70637 17.4817 7.37919 17.206 7.06869C16.6542 6.37919 15.8615 6 15.0167 6C14.1549 6 13.3792 6.37919 12.8103 7.03437C12.5519 7.34456 12.3622 7.67206 12.1899 7.98256C12.0519 8.25825 11.914 8.53412 11.7761 8.79281L11.7244 8.89594C10.3972 11.4816 9.10436 14.1018 7.91492 16.6874L7.89773 16.7219C7.77698 16.9976 7.63904 17.2905 7.50111 17.601C7.40889 17.8053 7.32271 18.0123 7.24267 18.2216C7.01848 18.8592 6.94961 19.4627 7.03573 20.0831C7.22548 21.376 8.08736 22.4621 9.27673 22.9446C9.72479 23.1344 10.1902 23.2205 10.673 23.2205C10.8109 23.2205 10.9832 23.2032 11.1212 23.1859C11.6899 23.1168 12.276 22.9276 12.8447 22.5999C13.5516 22.2034 14.2239 21.6347 14.9823 20.8072C15.7407 21.6347 16.4302 22.2035 17.1197 22.5999C17.6887 22.9276 18.2747 23.1168 18.8435 23.1859C18.9814 23.2032 19.1538 23.2205 19.2917 23.2205C19.7744 23.2205 20.2569 23.1344 20.6879 22.9446C21.8945 22.4621 22.7392 21.3588 22.9288 20.0831C23.0667 19.4797 22.9977 18.8767 22.7737 18.2386L22.7737 18.2387Z" fill="white"/>
</g>
<defs>
<clipPath id="clip0">
<rect width="16" height="17.25" fill="white" transform="translate(7 6)"/>
</clipPath>
</defs>
</svg>
