<svg width="30" height="30" viewBox="0 0 30 30" fill="none" xmlns="http://www.w3.org/2000/svg">
<path d="M21.8965 15.6943C21.8848 13.6963 22.79 12.1904 24.6182 11.0801C23.5957 9.61523 22.0488 8.80957 20.0098 8.6543C18.0791 8.50195 15.9668 9.7793 15.1934 9.7793C14.376 9.7793 12.5068 8.70703 11.0361 8.70703C8.00098 8.75391 4.77539 11.127 4.77539 15.9551C4.77539 17.3818 5.03613 18.8555 5.55762 20.373C6.25488 22.3711 8.76855 27.2666 11.3906 27.1875C12.7617 27.1553 13.7314 26.2148 15.5156 26.2148C17.2471 26.2148 18.1436 27.1875 19.6729 27.1875C22.3184 27.1494 24.5918 22.6992 25.2539 20.6953C21.7061 19.0225 21.8965 15.7969 21.8965 15.6943ZM18.8174 6.75879C20.3027 4.99512 20.168 3.38965 20.124 2.8125C18.8115 2.88867 17.2939 3.70605 16.4297 4.71094C15.4775 5.78906 14.918 7.12207 15.0381 8.625C16.4561 8.7334 17.751 8.00391 18.8174 6.75879Z" fill="#666666"/>
</svg>
