<svg width="30" height="30" viewBox="0 0 30 30" fill="none" xmlns="http://www.w3.org/2000/svg">
<path d="M27.2569 12.5519H26.25V12.5H15V17.5H22.0644C21.0338 20.4106 18.2644 22.5 15 22.5C10.8581 22.5 7.5 19.1419 7.5 15C7.5 10.8581 10.8581 7.5 15 7.5C16.9119 7.5 18.6513 8.22125 19.9756 9.39937L23.5112 5.86375C21.2787 3.78312 18.2925 2.5 15 2.5C8.09688 2.5 2.5 8.09688 2.5 15C2.5 21.9031 8.09688 27.5 15 27.5C21.9031 27.5 27.5 21.9031 27.5 15C27.5 14.1619 27.4137 13.3438 27.2569 12.5519Z" fill="#FFC107"/>
<path d="M3.94125 9.18188L8.04813 12.1938C9.15938 9.4425 11.8506 7.5 15 7.5C16.9119 7.5 18.6513 8.22125 19.9756 9.39937L23.5113 5.86375C21.2788 3.78312 18.2925 2.5 15 2.5C10.1988 2.5 6.035 5.21062 3.94125 9.18188Z" fill="#FF3D00"/>
<path d="M15 27.5C18.2287 27.5 21.1625 26.2644 23.3806 24.255L19.5119 20.9813C18.2147 21.9677 16.6297 22.5013 15 22.5C11.7487 22.5 8.98812 20.4269 7.94812 17.5338L3.87187 20.6744C5.94062 24.7225 10.1419 27.5 15 27.5Z" fill="#4CAF50"/>
<path d="M27.2569 12.5519H26.25V12.5H15V17.5H22.0644C21.5714 18.8853 20.6833 20.0957 19.51 20.9819L19.5119 20.9806L23.3806 24.2544C23.1069 24.5031 27.5 21.25 27.5 15C27.5 14.1619 27.4137 13.3438 27.2569 12.5519Z" fill="#1976D2"/>
</svg>
