<svg width="20" height="20" viewBox="0 0 20 20" fill="none" xmlns="http://www.w3.org/2000/svg">
<path d="M10 3.82916C9.092 2.99425 7.90351 2.53087 6.67 2.53083C6.01712 2.53151 5.37081 2.6613 4.76828 2.91272C4.16575 3.16414 3.61889 3.53224 3.15917 3.99583C1.19834 5.965 1.19917 9.045 3.16084 11.0058L9.27083 17.1158C9.4125 17.365 9.68583 17.5258 10 17.5258C10.129 17.5246 10.2559 17.4931 10.3705 17.4339C10.4852 17.3747 10.5843 17.2895 10.66 17.185L16.8392 11.0058C18.8008 9.04416 18.8008 5.965 16.8375 3.9925C16.378 3.52976 15.8316 3.16241 15.2296 2.91157C14.6277 2.66072 13.9821 2.53133 13.33 2.53083C12.0965 2.53103 10.9081 2.99439 10 3.82916ZM15.6592 5.17083C16.9617 6.48 16.9625 8.525 15.6608 9.8275L10 15.4883L4.33917 9.8275C3.0375 8.525 3.03833 6.48 4.3375 5.17416C4.97083 4.54416 5.79917 4.1975 6.67 4.1975C7.54083 4.1975 8.36584 4.54416 8.99417 5.1725L9.41084 5.58916C9.48816 5.66662 9.57999 5.72807 9.68109 5.76999C9.78219 5.81192 9.89056 5.8335 10 5.8335C10.1094 5.8335 10.2178 5.81192 10.3189 5.76999C10.42 5.72807 10.5118 5.66662 10.5892 5.58916L11.0058 5.1725C12.2658 3.915 14.4008 3.91833 15.6592 5.17083Z" fill="#B9B8CD"/>
</svg>
