<svg width="15" height="15" viewBox="0 0 15 15" fill="none" xmlns="http://www.w3.org/2000/svg">
<path d="M14.7929 12.9587L11.8707 10.0377C11.8051 9.97208 11.7271 9.92017 11.6412 9.88498C11.5554 9.84979 11.4634 9.83201 11.3705 9.83268H10.8984C11.8515 8.60967 12.3021 7.06934 12.1584 5.52569C12.0147 3.98204 11.2875 2.55128 10.1249 1.52509C8.96242 0.498904 7.45214 -0.0454593 5.90199 0.00297567C4.35183 0.0514106 2.87851 0.688997 1.78237 1.78576C0.686223 2.88252 0.0497869 4.35588 0.00279939 5.9055C-0.0441881 7.45511 0.50181 8.9643 1.52949 10.1254C2.55717 11.2865 3.98916 12.0121 5.53353 12.1543C7.07791 12.2965 8.6184 11.8446 9.84097 10.8907V11.3677C9.8403 11.4604 9.85808 11.5524 9.89329 11.6383C9.9285 11.7241 9.98042 11.8021 10.046 11.8677L12.9682 14.7887C13.0332 14.8541 13.1106 14.9061 13.1959 14.9415C13.2811 14.977 13.3725 14.9952 13.4648 14.9952C13.5572 14.9952 13.6486 14.977 13.7338 14.9415C13.8191 14.9061 13.8965 14.8541 13.9615 14.7887L14.7909 13.9597C14.8569 13.8942 14.9095 13.8163 14.9453 13.7305C14.9812 13.6447 14.9998 13.5526 15 13.4596C15.0002 13.3666 14.982 13.2744 14.9464 13.1885C14.9109 13.1025 14.8587 13.0244 14.7929 12.9587ZM6.08954 9.83268C5.34757 9.83268 4.62227 9.61274 4.00535 9.20069C3.38844 8.78863 2.90761 8.20296 2.62367 7.51774C2.33973 6.83252 2.26544 6.07852 2.41019 5.35109C2.55494 4.62366 2.91223 3.95547 3.43688 3.43103C3.96152 2.90658 4.62996 2.54943 5.35767 2.40473C6.08538 2.26004 6.83966 2.3343 7.52515 2.61813C8.21063 2.90196 8.79652 3.3826 9.20874 3.99929C9.62095 4.61597 9.84097 5.341 9.84097 6.08268C9.84149 6.57533 9.74483 7.06325 9.5565 7.51851C9.36817 7.97378 9.09188 8.38745 8.74343 8.73585C8.39499 9.08426 7.98123 9.36055 7.52584 9.54893C7.07046 9.73731 6.58238 9.83407 6.08954 9.83368V9.83268Z" fill="#B9B8CD"/>
</svg>
