<svg width="15" height="15" viewBox="0 0 15 15" fill="none" xmlns="http://www.w3.org/2000/svg">
<path d="M10.365 13.4824H14.25C14.4489 13.4824 14.6397 13.4033 14.7803 13.2627C14.921 13.122 15 12.9313 15 12.7324C15 12.5334 14.921 12.3427 14.7803 12.202C14.6397 12.0614 14.4489 11.9824 14.25 11.9824H10.365C10.2073 11.548 9.91978 11.1727 9.54138 10.9075C9.16297 10.6423 8.71209 10.5 8.25 10.5C7.78791 10.5 7.33703 10.6423 6.95862 10.9075C6.58022 11.1727 6.29265 11.548 6.135 11.9824H0.75C0.551087 11.9824 0.360322 12.0614 0.219669 12.202C0.0790167 12.3427 0 12.5334 0 12.7324C0 12.9313 0.0790167 13.122 0.219669 13.2627C0.360322 13.4033 0.551087 13.4824 0.75 13.4824H6.135C6.29265 13.9167 6.58022 14.292 6.95862 14.5572C7.33703 14.8224 7.78791 14.9647 8.25 14.9647C8.71209 14.9647 9.16297 14.8224 9.54138 14.5572C9.91978 14.292 10.2073 13.9167 10.365 13.4824ZM7.5 12.7324C7.5 12.584 7.54399 12.439 7.6264 12.3157C7.70881 12.1923 7.82594 12.0962 7.96299 12.0394C8.10003 11.9827 8.25083 11.9678 8.39632 11.9968C8.5418 12.0257 8.67544 12.0971 8.78033 12.202C8.88522 12.3069 8.95665 12.4406 8.98559 12.586C9.01453 12.7315 8.99968 12.8823 8.94291 13.0194C8.88614 13.1564 8.79001 13.2735 8.66668 13.356C8.54334 13.4384 8.39834 13.4824 8.25 13.4824C8.05109 13.4824 7.86032 13.4033 7.71967 13.2627C7.57902 13.122 7.5 12.9313 7.5 12.7324ZM5.865 8.23236H14.25C14.4489 8.23236 14.6397 8.15334 14.7803 8.01269C14.921 7.87204 15 7.68127 15 7.48236C15 7.28345 14.921 7.09268 14.7803 6.95203C14.6397 6.81138 14.4489 6.73236 14.25 6.73236L5.865 6.73236C5.70735 6.29799 5.41978 5.9227 5.04138 5.65749C4.66297 5.39227 4.21209 5.25 3.75 5.25C3.28791 5.25 2.83703 5.39227 2.45862 5.65749C2.08022 5.9227 1.79265 6.29799 1.635 6.73236H0.75C0.551087 6.73236 0.360322 6.81138 0.219669 6.95203C0.0790167 7.09268 0 7.28345 0 7.48236C0 7.68127 0.0790167 7.87204 0.219669 8.01269C0.360322 8.15334 0.551087 8.23236 0.75 8.23236H1.635C1.79265 8.66672 2.08022 9.04201 2.45862 9.30723C2.83703 9.57244 3.28791 9.71472 3.75 9.71472C4.21209 9.71472 4.66297 9.57244 5.04138 9.30723C5.41978 9.04201 5.70735 8.66672 5.865 8.23236ZM3 7.48236C3 7.33402 3.04399 7.18902 3.1264 7.06568C3.20881 6.94234 3.32594 6.84621 3.46299 6.78945C3.60003 6.73268 3.75083 6.71783 3.89632 6.74677C4.0418 6.77571 4.17544 6.84714 4.28033 6.95203C4.38522 7.05692 4.45665 7.19055 4.48559 7.33604C4.51453 7.48153 4.49968 7.63233 4.44291 7.76937C4.38614 7.90641 4.29002 8.02355 4.16668 8.10596C4.04334 8.18837 3.89834 8.23236 3.75 8.23236C3.55109 8.23236 3.36032 8.15334 3.21967 8.01269C3.07902 7.87204 3 7.68127 3 7.48236ZM11.865 2.98236H14.25C14.4489 2.98236 14.6397 2.90334 14.7803 2.76269C14.921 2.62204 15 2.43127 15 2.23236C15 2.03345 14.921 1.84268 14.7803 1.70203C14.6397 1.56138 14.4489 1.48236 14.25 1.48236L11.865 1.48236C11.7073 1.04799 11.4198 0.672703 11.0414 0.407489C10.663 0.142275 10.2121 0 9.75 0C9.28791 0 8.83703 0.142275 8.45862 0.407489C8.08022 0.672703 7.79265 1.04799 7.635 1.48236L0.75 1.48236C0.551087 1.48236 0.360322 1.56138 0.219669 1.70203C0.0790167 1.84268 0 2.03345 0 2.23236C0 2.43127 0.0790167 2.62204 0.219669 2.76269C0.360322 2.90334 0.551087 2.98236 0.75 2.98236L7.635 2.98236C7.79265 3.41672 8.08022 3.79201 8.45862 4.05723C8.83703 4.32244 9.28791 4.46472 9.75 4.46472C10.2121 4.46472 10.663 4.32244 11.0414 4.05723C11.4198 3.79201 11.7073 3.41672 11.865 2.98236ZM9 2.23236C9 2.08402 9.04399 1.93902 9.1264 1.81568C9.20881 1.69234 9.32594 1.59621 9.46299 1.53945C9.60003 1.48268 9.75083 1.46783 9.89632 1.49677C10.0418 1.52571 10.1754 1.59714 10.2803 1.70203C10.3852 1.80692 10.4567 1.94055 10.4856 2.08604C10.5145 2.23153 10.4997 2.38233 10.4429 2.51937C10.3861 2.65641 10.29 2.77355 10.1667 2.85596C10.0433 2.93837 9.89834 2.98236 9.75 2.98236C9.55109 2.98236 9.36032 2.90334 9.21967 2.76269C9.07902 2.62204 9 2.43127 9 2.23236Z" fill="#ED5575"/>
</svg>
